(0 "Created by: Fluent Interface 26.1")
(0 "Units: Meters")
(2 3)
(0 "Node Section")
(10 (0 1 8 0 3))
(10 (8 1 8 1 3)
(
0 0 0
0.0010000000474974513 0 0
0.0010000000474974513 0.0010000000474974513 0
0 0.0010000000474974513 0
0 0 0.0010000000474974513
0.0010000000474974513 0 0.0010000000474974513
0.0010000000474974513 0.0010000000474974513 0.0010000000474974513
0 0.0010000000474974513 0.0010000000474974513
))
(12 (0 1 1 0 0))
(12 (9 1 1 1 4))
(13 (0 1 6 0 0))
(13 (0 1 6 0 0))
(13 (a 1 1 3 4)(
5 8 7 6 1 0
)
)
(13 (b 2 2 3 4)(
1 2 3 4 1 0
)
)
(13 (c 3 3 3 4)(
1 4 8 5 1 0
)
)
(13 (d 4 4 3 4)(
2 6 7 3 1 0
)
)
(13 (e 5 5 3 4)(
1 5 6 2 1 0
)
)
(13 (f 6 6 3 4)(
4 3 7 8 1 0
)
)
(0 "Zone Sections")
(39 (9 fluid ET3D1)())
(39 (10 wall ET2D2)())
(39 (11 wall ET2D3)())
(39 (12 wall ET2D4)())
(39 (13 wall ET2D5)())
(39 (14 wall ET2D6)())
(39 (15 wall ET2D7)())
