(0 "tiny oneline")
(2 3)
(10 (1 1 8 1 3)(0 0 0 1e-3 0 0 1e-3 1e-3 0 0 1e-3 0 0 0 1e-3 1e-3 0 1e-3 1e-3 1e-3 1e-3 0 1e-3 1e-3))
(12 (2 1 1 1 4))
(13 (3 1 1 10 4)(1 4 3 2 1 0))
(13 (4 2 2 5 4)(5 6 7 8 1 0))
(13 (5 3 3 3 4)(1 5 8 4 1 0))
(13 (6 4 4 3 4)(2 3 7 6 1 0))
(13 (7 5 5 3 4)(1 2 6 5 1 0))
(13 (8 6 6 7 4)(4 8 7 3 1 0))
(45 (2 fluid fluid)())
(45 (3 velocity-inlet inlet_jet)())
(45 (4 pressure-outlet return_slot)())
(45 (5 wall wall_imp)())
(45 (6 wall fin)())
(45 (7 wall wall_lid)())
(45 (8 symmetry SYM)())
